<svg width="1024" height="1024" viewBox="0 0 1024 1024" fill="none" xmlns="http://www.w3.org/2000/svg">
<g clip-path="url(#clip0_1211_6512)">
<rect width="1024" height="1024" rx="100" fill="#020200"/>
<rect width="1280.93" height="1237.63" transform="translate(-151.963 -88.136)" fill="#020200"/>
<path d="M566.245 -11.7515C587.263 -42.173 625.734 -55.226 660.926 -43.8762L863.745 21.5363C897.931 32.5619 917.869 68.0449 909.507 102.978L896.915 155.584C894.719 164.758 885.345 170.273 876.26 167.738C868.505 165.574 860.312 169.273 856.807 176.522L774.344 347.088C765.878 364.599 763.766 384.508 768.369 403.405L820.848 618.844L902.983 956.029C918.825 1021.07 855.789 1077.52 792.886 1054.62L37.1042 779.54C-25.7992 756.645 -37.8022 672.883 16.1401 633.244L295.797 427.741L475.324 295.818C490.481 284.679 501.452 268.766 506.469 250.638L548.773 97.8012C551.645 87.4249 548.44 76.315 540.481 69.0639C529.912 59.4339 528.09 43.4727 536.218 31.7087L566.245 -11.7515Z" fill="#D9D9D9"/>
<path d="M522.268 376.821C530.514 404.826 563.383 417.013 587.893 401.154L624.395 377.535C651.387 360.07 686.44 361.439 711.987 380.957L717.035 384.814C732.512 396.639 743.469 413.411 748.078 432.335L794.593 623.292L855.542 873.503C875.346 954.801 796.551 1025.36 717.922 996.745L140.73 786.664C62.101 758.046 47.0972 653.344 114.525 603.795L322.048 451.299L454.507 353.962C478.911 336.03 513.714 347.77 522.268 376.821Z" fill="#020200"/>
<path d="M385.688 670.412C424.06 673.769 458.56 653.989 472.506 623.684L462.71 615.454C462.71 615.454 408.239 645.042 373.885 621.004C360.772 611.828 354.343 601.053 349.82 591.555C337.974 566.681 347.941 540.912 347.941 540.912L319.474 524.399C319.474 524.399 307.245 554.63 306.23 584.937C304.801 627.58 338.039 666.243 385.688 670.412Z" fill="white"/>
<path d="M598.595 689.039C560.224 685.682 529.683 660.212 521.21 627.945L532.287 621.541C532.287 621.541 580.792 660.139 618.798 642.431C633.306 635.672 641.508 626.177 647.612 617.609C663.597 595.17 658.257 568.061 658.257 568.061L689.158 556.742C689.158 556.742 695.952 588.638 691.689 618.66C685.691 660.903 646.244 693.208 598.595 689.039Z" fill="white"/>
<path d="M702.222 341.401L759.494 168.888L570.218 93.4569V71.8054C570.218 71.8054 694.628 124.486 772.764 143.744C798.789 150.159 859.37 161.205 859.37 161.205L836.321 196.825L806.289 185.65L734.35 365.846L702.222 341.401Z" fill="white"/>
<path d="M811.876 21.5183L880.323 52.9479L834.924 135.363H811.876V21.5183Z" fill="white"/>
<path d="M728.064 511.121H745.525L839.115 1007.71H745.525L728.064 511.121Z" fill="#D9D9D9" fill-opacity="0.5"/>
</g>
<defs>
<clipPath id="clip0_1211_6512">
<rect width="1024" height="1024" rx="100" fill="white"/>
</clipPath>
</defs>
</svg>
